<svg version="1" xmlns="http://www.w3.org/2000/svg" width="85.333" height="85.333" viewBox="0 0 64.000000 64.000000"><path d="M10.4 13.7c-3 .6-7.3 5.4-8.8 9.7C0 28.2.4 38 2.5 42.4c2.5 5.2 7.4 7.9 14.4 7.9 5.3 0 11.2-2 12.6-4.3.6-.9.8-7 .6-12.8-.1-2.1-.5-2.2-7-2.2-4.8 0-7 .4-7.4 1.3-.8 2 .9 4.2 3.3 4.3 1.1.1 2.4.2 2.9.3.9.1.9 5.6 0 6.5-.2.3-1.8.7-3.5 1-4.6.8-9-2.4-9.8-7.1C6.7 26.4 9.7 19.1 16 19c3.1 0 4.4.8 5.9 3.7.9 1.7 2.1 2.3 4.7 2.3 3.4 0 3.6-.1 2.9-2.8-1.8-7.1-9.3-10.4-19.1-8.5zM42.7 14.4c-6.2 3.3-8.7 9.3-8.2 19.5.4 10.3 5.7 16.4 14.2 16.4 7.8.1 13.7-4.1 14.5-10.2.3-2.1-.1-2.4-3.1-2.5-2.8-.1-3.5.4-4.3 2.5-1.2 3.4-4.4 4.8-8.6 3.7-2.2-.6-3.6-1.8-4.3-3.5-1.1-3-1.4-11.4-.5-15.3.8-3.6 4.3-6.2 7.7-5.6 3.7.6 4.9 1.4 5.9 4.2.8 2 1.6 2.4 4.5 2.2 1.9-.2 3.5-.7 3.5-1.1 0-1.9-4.1-8.3-6.1-9.6-3.5-2.1-11.9-2.5-15.2-.7z"/></svg>